<mxfile host="65bd71144e">
    <diagram name="Сторінка-1" id="rvj2FAvkML7O3Nmk2m0C">
        <mxGraphModel dx="1855" dy="704" grid="0" gridSize="10" guides="1" tooltips="1" connect="1" arrows="1" fold="1" page="0" pageScale="1" pageWidth="827" pageHeight="1169" background="light-dark(#282c34, #121212)" math="0" shadow="0">
            <root>
                <mxCell id="0"/>
                <mxCell id="1" parent="0"/>
                <mxCell id="YzSzsvycSWcMOv0pabxs-2" value="Аналіз і вибір комбінацій технік" style="whiteSpace=wrap;strokeWidth=2;fontSize=19;strokeColor=light-dark(#abb2bf, #ededed);fillColor=light-dark(#abb2bf, #ededed);align=center;verticalAlign=top;fontFamily=Helvetica;fontColor=default;" parent="1" vertex="1">
                    <mxGeometry x="-72" y="578" width="330" height="434" as="geometry"/>
                </mxCell>
                <mxCell id="YzSzsvycSWcMOv0pabxs-4" value="Початок" style="whiteSpace=wrap;strokeWidth=2;fontSize=13;fillColor=light-dark(#333842, #ededed);strokeColor=default;align=center;verticalAlign=middle;fontFamily=Helvetica;fontColor=#E6E6E6;" parent="1" vertex="1">
                    <mxGeometry x="169" y="20" width="120" height="54" as="geometry"/>
                </mxCell>
                <mxCell id="YzSzsvycSWcMOv0pabxs-5" value="Завантаження даних" style="whiteSpace=wrap;strokeWidth=2;fontSize=13;fillColor=light-dark(#333842, #ededed);strokeColor=default;align=center;verticalAlign=middle;fontFamily=Helvetica;fontColor=#E6E6E6;" parent="1" vertex="1">
                    <mxGeometry x="122" y="124" width="213" height="54" as="geometry"/>
                </mxCell>
                <mxCell id="YzSzsvycSWcMOv0pabxs-6" value="Завантаження описів технік з JSON" style="whiteSpace=wrap;strokeWidth=2;fontSize=13;fillColor=light-dark(#333842, #ededed);strokeColor=default;align=center;verticalAlign=middle;fontFamily=Helvetica;fontColor=#E6E6E6;" parent="1" vertex="1">
                    <mxGeometry x="376" y="220" width="260" height="78" as="geometry"/>
                </mxCell>
                <mxCell id="YzSzsvycSWcMOv0pabxs-7" value="Завантаження даних з Parquet файлу" style="whiteSpace=wrap;strokeWidth=2;fontSize=13;fillColor=light-dark(#333842, #ededed);fontColor=#E6E6E6;strokeColor=default;align=center;verticalAlign=middle;fontFamily=Helvetica;" parent="1" vertex="1">
                    <mxGeometry x="-37" y="244" width="260" height="78" as="geometry"/>
                </mxCell>
                <mxCell id="YzSzsvycSWcMOv0pabxs-8" value="Конвертація технік у списки" style="whiteSpace=wrap;strokeWidth=2;fontSize=13;fillColor=light-dark(#333842, #ededed);fontColor=#E6E6E6;strokeColor=default;align=center;verticalAlign=middle;fontFamily=Helvetica;" parent="1" vertex="1">
                    <mxGeometry x="-37" y="372" width="260" height="78" as="geometry"/>
                </mxCell>
                <mxCell id="YzSzsvycSWcMOv0pabxs-9" value="Аналіз комбінацій технік" style="whiteSpace=wrap;strokeWidth=2;fontSize=13;fillColor=light-dark(#333842, #ededed);fontColor=#E6E6E6;strokeColor=default;align=center;verticalAlign=middle;fontFamily=Helvetica;" parent="1" vertex="1">
                    <mxGeometry x="-29" y="500" width="244" height="54" as="geometry"/>
                </mxCell>
                <mxCell id="YzSzsvycSWcMOv0pabxs-10" value="Пошук пар технік в існуючих даних" style="whiteSpace=wrap;strokeWidth=2;fontSize=13;fillColor=light-dark(#333842, #ededed);fontColor=#E6E6E6;strokeColor=default;align=center;verticalAlign=middle;fontFamily=Helvetica;" parent="1" vertex="1">
                    <mxGeometry x="-37" y="629" width="260" height="78" as="geometry"/>
                </mxCell>
                <mxCell id="YzSzsvycSWcMOv0pabxs-11" value="Підрахунок частоти комбінацій по мовах" style="whiteSpace=wrap;strokeWidth=2;fontSize=13;fillColor=light-dark(#333842, #ededed);fontColor=#E6E6E6;strokeColor=default;align=center;verticalAlign=middle;fontFamily=Helvetica;" parent="1" vertex="1">
                    <mxGeometry x="-37" y="757" width="260" height="78" as="geometry"/>
                </mxCell>
                <mxCell id="YzSzsvycSWcMOv0pabxs-12" value="Вибір популярних комбінацій з частотою &gt;= 2" style="whiteSpace=wrap;strokeWidth=2;fontSize=13;fillColor=light-dark(#333842, #ededed);fontColor=#E6E6E6;strokeColor=default;align=center;verticalAlign=middle;fontFamily=Helvetica;" parent="1" vertex="1">
                    <mxGeometry x="-37" y="885" width="260" height="102" as="geometry"/>
                </mxCell>
                <mxCell id="YzSzsvycSWcMOv0pabxs-13" value="Цикл по вибраних комбінаціях технік" style="whiteSpace=wrap;strokeWidth=2;fontSize=13;strokeColor=default;align=center;verticalAlign=middle;fontFamily=Helvetica;fontColor=#E6E6E6;fillColor=light-dark(#333842, #ededed);" parent="1" vertex="1">
                    <mxGeometry x="189" y="1058" width="260" height="78" as="geometry"/>
                </mxCell>
                <mxCell id="YzSzsvycSWcMOv0pabxs-14" value="Чи є приклади для цієї комбінації?" style="rhombus;strokeWidth=2;whiteSpace=wrap;fontSize=13;fillColor=light-dark(#333842, #ededed);fontColor=#E6E6E6;" parent="1" vertex="1">
                    <mxGeometry x="20" y="1174" width="278" height="278" as="geometry"/>
                </mxCell>
                <mxCell id="YzSzsvycSWcMOv0pabxs-15" value="Пропустити комбінацію і перейти до наступної" style="whiteSpace=wrap;strokeWidth=2;fontSize=13;strokeColor=default;align=center;verticalAlign=middle;fontFamily=Helvetica;fontColor=#E6E6E6;fillColor=light-dark(#333842, #ededed);" parent="1" vertex="1">
                    <mxGeometry x="75" y="1524" width="260" height="78" as="geometry"/>
                </mxCell>
                <mxCell id="YzSzsvycSWcMOv0pabxs-16" value="Адаптивний вибір прикладів" style="whiteSpace=wrap;strokeWidth=2;fontSize=13;strokeColor=default;align=center;verticalAlign=middle;fontFamily=Helvetica;fontColor=#E6E6E6;fillColor=light-dark(#333842, #ededed);" parent="1" vertex="1">
                    <mxGeometry x="426" y="1524" width="260" height="78" as="geometry"/>
                </mxCell>
                <mxCell id="YzSzsvycSWcMOv0pabxs-20" value="Генерація нових прикладів" style="whiteSpace=wrap;strokeWidth=2;fontSize=13;strokeColor=default;align=center;verticalAlign=middle;fontFamily=Helvetica;fontColor=#E6E6E6;fillColor=light-dark(#333842, #ededed);" parent="1" vertex="1">
                    <mxGeometry x="939" y="1781" width="260" height="78" as="geometry"/>
                </mxCell>
                <mxCell id="YzSzsvycSWcMOv0pabxs-26" value="Перевірка, чи лишились комбінації для обробки" style="rhombus;strokeWidth=2;whiteSpace=wrap;fontSize=13;fillColor=light-dark(#333842, #ededed);fontColor=#E6E6E6;strokeColor=default;align=center;verticalAlign=middle;fontFamily=Helvetica;" parent="1" vertex="1">
                    <mxGeometry x="670" y="881" width="358" height="347" as="geometry"/>
                </mxCell>
                <mxCell id="YzSzsvycSWcMOv0pabxs-27" value="Завершення" style="whiteSpace=wrap;strokeWidth=2;fontSize=13;strokeColor=default;align=center;verticalAlign=middle;fontFamily=Helvetica;fontColor=#E6E6E6;fillColor=light-dark(#333842, #ededed);" parent="1" vertex="1">
                    <mxGeometry x="766" y="1321" width="150" height="54" as="geometry"/>
                </mxCell>
                <mxCell id="YzSzsvycSWcMOv0pabxs-28" value="" style="curved=1;startArrow=none;endArrow=block;exitX=0.5;exitY=1;entryX=0.5;entryY=0;rounded=0;fontSize=13;strokeColor=#E6E6E6;" parent="1" source="YzSzsvycSWcMOv0pabxs-4" target="YzSzsvycSWcMOv0pabxs-5" edge="1">
                    <mxGeometry relative="1" as="geometry">
                        <Array as="points"/>
                    </mxGeometry>
                </mxCell>
                <mxCell id="YzSzsvycSWcMOv0pabxs-31" value="" style="curved=1;startArrow=none;endArrow=block;exitX=0.5;exitY=1;entryX=0.5;entryY=0;rounded=0;fontSize=13;strokeColor=#E6E6E6;" parent="1" source="YzSzsvycSWcMOv0pabxs-7" target="YzSzsvycSWcMOv0pabxs-8" edge="1">
                    <mxGeometry relative="1" as="geometry">
                        <Array as="points"/>
                    </mxGeometry>
                </mxCell>
                <mxCell id="YzSzsvycSWcMOv0pabxs-32" value="" style="curved=1;startArrow=none;endArrow=block;exitX=0.5;exitY=1;entryX=0.5;entryY=0;rounded=0;fontSize=13;strokeColor=#E6E6E6;" parent="1" source="YzSzsvycSWcMOv0pabxs-8" target="YzSzsvycSWcMOv0pabxs-9" edge="1">
                    <mxGeometry relative="1" as="geometry">
                        <Array as="points"/>
                    </mxGeometry>
                </mxCell>
                <mxCell id="YzSzsvycSWcMOv0pabxs-33" value="" style="curved=1;startArrow=none;endArrow=block;exitX=0.5;exitY=1;entryX=0.5;entryY=0;rounded=0;fontSize=13;strokeColor=#E6E6E6;" parent="1" source="YzSzsvycSWcMOv0pabxs-9" target="YzSzsvycSWcMOv0pabxs-10" edge="1">
                    <mxGeometry relative="1" as="geometry">
                        <Array as="points"/>
                    </mxGeometry>
                </mxCell>
                <mxCell id="YzSzsvycSWcMOv0pabxs-34" value="" style="curved=1;startArrow=none;endArrow=block;exitX=0.5;exitY=1;entryX=0.5;entryY=0;rounded=0;fontSize=13;strokeColor=#E6E6E6;" parent="1" source="YzSzsvycSWcMOv0pabxs-10" target="YzSzsvycSWcMOv0pabxs-11" edge="1">
                    <mxGeometry relative="1" as="geometry">
                        <Array as="points"/>
                    </mxGeometry>
                </mxCell>
                <mxCell id="YzSzsvycSWcMOv0pabxs-35" value="" style="curved=1;startArrow=none;endArrow=block;exitX=0.5;exitY=1;entryX=0.5;entryY=0;rounded=0;fontSize=13;strokeColor=#E6E6E6;" parent="1" source="YzSzsvycSWcMOv0pabxs-11" target="YzSzsvycSWcMOv0pabxs-12" edge="1">
                    <mxGeometry relative="1" as="geometry">
                        <Array as="points"/>
                    </mxGeometry>
                </mxCell>
                <mxCell id="YzSzsvycSWcMOv0pabxs-36" value="" style="curved=1;startArrow=none;endArrow=block;exitX=0.5;exitY=1;entryX=0.5;entryY=0;rounded=0;fontSize=15;strokeColor=#E6E6E6;" parent="1" source="YzSzsvycSWcMOv0pabxs-12" target="YzSzsvycSWcMOv0pabxs-13" edge="1">
                    <mxGeometry relative="1" as="geometry">
                        <Array as="points"/>
                    </mxGeometry>
                </mxCell>
                <mxCell id="YzSzsvycSWcMOv0pabxs-37" value="" style="curved=1;startArrow=none;endArrow=block;exitX=0;exitY=0.79;entryX=0.5;entryY=0;rounded=0;fontSize=13;strokeColor=#E6E6E6;" parent="1" source="YzSzsvycSWcMOv0pabxs-13" target="YzSzsvycSWcMOv0pabxs-14" edge="1">
                    <mxGeometry relative="1" as="geometry">
                        <Array as="points">
                            <mxPoint x="159" y="1149"/>
                        </Array>
                    </mxGeometry>
                </mxCell>
                <mxCell id="YzSzsvycSWcMOv0pabxs-38" value="Ні" style="curved=1;startArrow=none;endArrow=block;exitX=0.5;exitY=1;entryX=0.33;entryY=0.01;rounded=0;fontSize=13;strokeColor=#E6E6E6;" parent="1" source="YzSzsvycSWcMOv0pabxs-14" target="YzSzsvycSWcMOv0pabxs-15" edge="1">
                    <mxGeometry relative="1" as="geometry">
                        <Array as="points">
                            <mxPoint x="159" y="1488"/>
                        </Array>
                    </mxGeometry>
                </mxCell>
                <mxCell id="YzSzsvycSWcMOv0pabxs-40" value="Так" style="curved=1;startArrow=none;endArrow=block;exitX=1;exitY=0.72;entryX=0.5;entryY=0.01;rounded=0;fontSize=15;strokeColor=#E6E6E6;" parent="1" source="YzSzsvycSWcMOv0pabxs-14" target="YzSzsvycSWcMOv0pabxs-16" edge="1">
                    <mxGeometry relative="1" as="geometry">
                        <Array as="points">
                            <mxPoint x="556" y="1488"/>
                        </Array>
                    </mxGeometry>
                </mxCell>
                <mxCell id="YzSzsvycSWcMOv0pabxs-52" value="Ні" style="curved=1;startArrow=none;endArrow=block;exitX=0.5;exitY=1;entryX=0.5;entryY=0;rounded=0;fontSize=15;strokeColor=#E6E6E6;" parent="1" source="YzSzsvycSWcMOv0pabxs-26" target="YzSzsvycSWcMOv0pabxs-27" edge="1">
                    <mxGeometry relative="1" as="geometry">
                        <Array as="points"/>
                    </mxGeometry>
                </mxCell>
                <mxCell id="YzSzsvycSWcMOv0pabxs-54" value="" style="curved=1;startArrow=none;endArrow=block;entryX=0.5;entryY=0;rounded=0;exitX=0.5;exitY=1;exitDx=0;exitDy=0;entryDx=0;entryDy=0;fontSize=13;strokeColor=#E6E6E6;" parent="1" source="YzSzsvycSWcMOv0pabxs-5" target="YzSzsvycSWcMOv0pabxs-7" edge="1">
                    <mxGeometry relative="1" as="geometry">
                        <Array as="points"/>
                        <mxPoint x="-258" y="74" as="sourcePoint"/>
                        <mxPoint x="-16" y="87" as="targetPoint"/>
                    </mxGeometry>
                </mxCell>
                <mxCell id="YzSzsvycSWcMOv0pabxs-55" value="" style="curved=1;startArrow=none;endArrow=block;entryX=1;entryY=0.5;rounded=0;exitX=0;exitY=0.5;exitDx=0;exitDy=0;entryDx=0;entryDy=0;fontSize=15;strokeColor=#E6E6E6;" parent="1" source="YzSzsvycSWcMOv0pabxs-26" target="YzSzsvycSWcMOv0pabxs-13" edge="1">
                    <mxGeometry relative="1" as="geometry">
                        <Array as="points"/>
                        <mxPoint x="591" y="679" as="sourcePoint"/>
                        <mxPoint x="700" y="689" as="targetPoint"/>
                    </mxGeometry>
                </mxCell>
                <mxCell id="YzSzsvycSWcMOv0pabxs-60" value="Так" style="edgeLabel;html=1;align=center;verticalAlign=middle;resizable=0;points=[];fontSize=13;" parent="YzSzsvycSWcMOv0pabxs-55" vertex="1" connectable="0">
                    <mxGeometry x="0.2218" y="4" relative="1" as="geometry">
                        <mxPoint as="offset"/>
                    </mxGeometry>
                </mxCell>
                <mxCell id="YzSzsvycSWcMOv0pabxs-56" value="" style="curved=1;startArrow=none;endArrow=block;entryX=1;entryY=0;rounded=0;exitX=0.5;exitY=1;exitDx=0;exitDy=0;entryDx=0;entryDy=0;fontSize=13;strokeColor=#E6E6E6;" parent="1" source="YzSzsvycSWcMOv0pabxs-25" target="YzSzsvycSWcMOv0pabxs-26" edge="1">
                    <mxGeometry relative="1" as="geometry">
                        <Array as="points"/>
                        <mxPoint x="1209" y="1430" as="sourcePoint"/>
                        <mxPoint x="1286" y="1327" as="targetPoint"/>
                    </mxGeometry>
                </mxCell>
                <mxCell id="YzSzsvycSWcMOv0pabxs-57" value="" style="curved=1;startArrow=none;endArrow=block;entryX=0.5;entryY=0;rounded=0;exitX=0.5;exitY=1;exitDx=0;exitDy=0;entryDx=0;entryDy=0;fontSize=13;strokeColor=#E6E6E6;" parent="1" source="YzSzsvycSWcMOv0pabxs-5" target="YzSzsvycSWcMOv0pabxs-6" edge="1">
                    <mxGeometry relative="1" as="geometry">
                        <Array as="points"/>
                        <mxPoint x="-105" y="97" as="sourcePoint"/>
                        <mxPoint x="4" y="107" as="targetPoint"/>
                    </mxGeometry>
                </mxCell>
                <mxCell id="YzSzsvycSWcMOv0pabxs-58" value="" style="curved=1;startArrow=none;endArrow=block;entryX=0.5;entryY=1;rounded=0;exitX=0.5;exitY=0;exitDx=0;exitDy=0;entryDx=0;entryDy=0;fontSize=15;strokeColor=#E6E6E6;" parent="1" source="YzSzsvycSWcMOv0pabxs-15" target="YzSzsvycSWcMOv0pabxs-13" edge="1">
                    <mxGeometry relative="1" as="geometry">
                        <Array as="points">
                            <mxPoint x="415" y="1367"/>
                        </Array>
                        <mxPoint x="298" y="1452" as="sourcePoint"/>
                        <mxPoint x="407" y="1462" as="targetPoint"/>
                    </mxGeometry>
                </mxCell>
                <mxCell id="YzSzsvycSWcMOv0pabxs-25" value="Додавання до нового набору даних" style="whiteSpace=wrap;strokeWidth=2;fontSize=13;strokeColor=default;align=center;verticalAlign=middle;fontFamily=Helvetica;fontColor=#E6E6E6;fillColor=light-dark(#333842, #ededed);" parent="1" vertex="1">
                    <mxGeometry x="905.9966666666667" y="719" width="450.66666666666663" height="78" as="geometry"/>
                </mxCell>
                <mxCell id="YzSzsvycSWcMOv0pabxs-49" value="" style="curved=1;startArrow=none;endArrow=block;exitX=0.5;exitY=1;entryX=0.5;entryY=0.01;rounded=0;fontSize=13;strokeColor=#E6E6E6;strokeWidth=2;align=center;verticalAlign=middle;fontFamily=Helvetica;fontColor=#E6E6E6;fillColor=light-dark(#333842, #ededed);" parent="1" source="YzSzsvycSWcMOv0pabxs-24" target="YzSzsvycSWcMOv0pabxs-25" edge="1">
                    <mxGeometry relative="1" as="geometry">
                        <Array as="points"/>
                    </mxGeometry>
                </mxCell>
                <mxCell id="YzSzsvycSWcMOv0pabxs-64" value="" style="group;strokeColor=#E6E6E6;strokeWidth=2;align=center;verticalAlign=middle;fontFamily=Helvetica;fontSize=13;fontColor=#E6E6E6;fillColor=light-dark(#333842, #ededed);container=0;" parent="1" vertex="1" connectable="0">
                    <mxGeometry x="1059" y="70" width="572" height="536" as="geometry"/>
                </mxCell>
                <mxCell id="YzSzsvycSWcMOv0pabxs-61" value="" style="curved=1;startArrow=none;endArrow=block;entryX=1;entryY=0.5;rounded=0;exitX=1;exitY=0.5;exitDx=0;exitDy=0;entryDx=0;entryDy=0;fontSize=13;strokeColor=#E6E6E6;" parent="1" source="YzSzsvycSWcMOv0pabxs-20" target="YzSzsvycSWcMOv0pabxs-21" edge="1">
                    <mxGeometry relative="1" as="geometry">
                        <Array as="points">
                            <mxPoint x="2027" y="1110"/>
                        </Array>
                        <mxPoint x="1222" y="2010" as="sourcePoint"/>
                        <mxPoint x="1331" y="2020" as="targetPoint"/>
                    </mxGeometry>
                </mxCell>
                <mxCell id="YzSzsvycSWcMOv0pabxs-44" value="" style="curved=1;startArrow=none;endArrow=block;exitX=0.5;exitY=1;entryX=0.5;entryY=1;rounded=0;fontSize=15;entryDx=0;entryDy=0;strokeColor=#E6E6E6;" parent="1" source="YzSzsvycSWcMOv0pabxs-19" target="YzSzsvycSWcMOv0pabxs-20" edge="1">
                    <mxGeometry relative="1" as="geometry">
                        <Array as="points">
                            <mxPoint x="868" y="2255"/>
                        </Array>
                    </mxGeometry>
                </mxCell>
                <mxCell id="YzSzsvycSWcMOv0pabxs-1" value="Процес генерації з техніками" style="whiteSpace=wrap;strokeWidth=2;fontSize=19;fillColor=light-dark(#abb2bf, #ededed);strokeColor=light-dark(#abb2bf, #ededed);align=center;verticalAlign=top;fontFamily=Helvetica;fontColor=default;" parent="1" vertex="1">
                    <mxGeometry x="1059" y="26" width="572" height="580" as="geometry"/>
                </mxCell>
                <mxCell id="YzSzsvycSWcMOv0pabxs-21" value="Створення промпту з описами технік та прикладами" style="whiteSpace=wrap;strokeWidth=2;fontSize=13;strokeColor=default;align=center;verticalAlign=middle;fontFamily=Helvetica;fontColor=#E6E6E6;fillColor=light-dark(#333842, #ededed);" parent="1" vertex="1">
                    <mxGeometry x="1119.6666666666667" y="95" width="450.66666666666663" height="102" as="geometry"/>
                </mxCell>
                <mxCell id="YzSzsvycSWcMOv0pabxs-22" value="Виклик Gemini API" style="whiteSpace=wrap;strokeWidth=2;fontSize=13;strokeColor=default;align=center;verticalAlign=middle;fontFamily=Helvetica;fontColor=#E6E6E6;fillColor=light-dark(#333842, #ededed);" parent="1" vertex="1">
                    <mxGeometry x="1175.1333333333334" y="247" width="337.99999999999994" height="54" as="geometry"/>
                </mxCell>
                <mxCell id="YzSzsvycSWcMOv0pabxs-23" value="Обробка відповіді та вилучення JSON" style="whiteSpace=wrap;strokeWidth=2;fontSize=13;strokeColor=default;align=center;verticalAlign=middle;fontFamily=Helvetica;fontColor=#E6E6E6;fillColor=light-dark(#333842, #ededed);" parent="1" vertex="1">
                    <mxGeometry x="1119.6666666666667" y="351" width="450.66666666666663" height="78" as="geometry"/>
                </mxCell>
                <mxCell id="YzSzsvycSWcMOv0pabxs-24" value="Створення запису з унікальним ID, згенерованим текстом" style="whiteSpace=wrap;strokeWidth=2;fontSize=13;strokeColor=default;align=center;verticalAlign=middle;fontFamily=Helvetica;fontColor=#E6E6E6;fillColor=light-dark(#333842, #ededed);" parent="1" vertex="1">
                    <mxGeometry x="1119.6666666666667" y="479" width="450.66666666666663" height="102" as="geometry"/>
                </mxCell>
                <mxCell id="YzSzsvycSWcMOv0pabxs-46" value="" style="curved=1;startArrow=none;endArrow=block;exitX=0.5;exitY=1;entryX=0.5;entryY=0.01;rounded=0;fontSize=13;strokeColor=#E6E6E6;strokeWidth=2;align=center;verticalAlign=middle;fontFamily=Helvetica;fontColor=#E6E6E6;fillColor=light-dark(#333842, #ededed);" parent="1" source="YzSzsvycSWcMOv0pabxs-21" target="YzSzsvycSWcMOv0pabxs-22" edge="1">
                    <mxGeometry relative="1" as="geometry">
                        <Array as="points"/>
                    </mxGeometry>
                </mxCell>
                <mxCell id="YzSzsvycSWcMOv0pabxs-47" value="" style="curved=1;startArrow=none;endArrow=block;exitX=0.5;exitY=1.01;entryX=0.5;entryY=0.01;rounded=0;fontSize=13;strokeColor=#E6E6E6;strokeWidth=2;align=center;verticalAlign=middle;fontFamily=Helvetica;fontColor=#E6E6E6;fillColor=light-dark(#333842, #ededed);" parent="1" source="YzSzsvycSWcMOv0pabxs-22" target="YzSzsvycSWcMOv0pabxs-23" edge="1">
                    <mxGeometry relative="1" as="geometry">
                        <Array as="points"/>
                    </mxGeometry>
                </mxCell>
                <mxCell id="YzSzsvycSWcMOv0pabxs-48" value="" style="curved=1;startArrow=none;endArrow=block;exitX=0.5;exitY=1.01;entryX=0.5;entryY=0;rounded=0;fontSize=13;strokeColor=#E6E6E6;strokeWidth=2;align=center;verticalAlign=middle;fontFamily=Helvetica;fontColor=#E6E6E6;fillColor=light-dark(#333842, #ededed);" parent="1" source="YzSzsvycSWcMOv0pabxs-23" target="YzSzsvycSWcMOv0pabxs-24" edge="1">
                    <mxGeometry relative="1" as="geometry">
                        <Array as="points"/>
                    </mxGeometry>
                </mxCell>
                <mxCell id="YzSzsvycSWcMOv0pabxs-3" value="Адаптивна вибірка прикладів" style="whiteSpace=wrap;strokeWidth=2;fontSize=19;fillColor=light-dark(#abb2bf, #ededed);strokeColor=light-dark(#abb2bf, #ededed);align=center;verticalAlign=top;fontFamily=Helvetica;fontColor=default;" parent="1" vertex="1">
                    <mxGeometry x="391" y="1627" width="404" height="481" as="geometry"/>
                </mxCell>
                <mxCell id="YzSzsvycSWcMOv0pabxs-17" value="Фільтрація даних за мовою та наявністю всіх технік" style="whiteSpace=wrap;strokeWidth=2;fontSize=13;strokeColor=default;align=center;verticalAlign=middle;fontFamily=Helvetica;fontColor=#E6E6E6;fillColor=light-dark(#333842, #ededed);" parent="1" vertex="1">
                    <mxGeometry x="433.8484848484849" y="1677" width="318.30303030303025" height="102" as="geometry"/>
                </mxCell>
                <mxCell id="YzSzsvycSWcMOv0pabxs-18" value="Вибір розміру вибірки: min(3, кількість наявних прикладів)" style="whiteSpace=wrap;strokeWidth=2;fontSize=13;strokeColor=default;align=center;verticalAlign=middle;fontFamily=Helvetica;fontColor=#E6E6E6;fillColor=light-dark(#333842, #ededed);" parent="1" vertex="1">
                    <mxGeometry x="433.8484848484849" y="1829" width="318.30303030303025" height="102" as="geometry"/>
                </mxCell>
                <mxCell id="YzSzsvycSWcMOv0pabxs-19" value="Випадковий відбір прикладів вказаного розміру" style="whiteSpace=wrap;strokeWidth=2;fontSize=13;strokeColor=default;align=center;verticalAlign=middle;fontFamily=Helvetica;fontColor=#E6E6E6;fillColor=light-dark(#333842, #ededed);" parent="1" vertex="1">
                    <mxGeometry x="433.8484848484849" y="1981" width="318.30303030303025" height="102" as="geometry"/>
                </mxCell>
                <mxCell id="YzSzsvycSWcMOv0pabxs-42" value="" style="curved=1;startArrow=none;endArrow=block;exitX=0.5;exitY=1;entryX=0.5;entryY=0;rounded=0;fontSize=13;strokeColor=#E6E6E6;" parent="1" source="YzSzsvycSWcMOv0pabxs-17" target="YzSzsvycSWcMOv0pabxs-18" edge="1">
                    <mxGeometry relative="1" as="geometry">
                        <Array as="points"/>
                    </mxGeometry>
                </mxCell>
                <mxCell id="YzSzsvycSWcMOv0pabxs-43" value="" style="curved=1;startArrow=none;endArrow=block;exitX=0.5;exitY=1;entryX=0.5;entryY=0;rounded=0;fontSize=13;strokeColor=#E6E6E6;" parent="1" source="YzSzsvycSWcMOv0pabxs-18" target="YzSzsvycSWcMOv0pabxs-19" edge="1">
                    <mxGeometry relative="1" as="geometry">
                        <Array as="points"/>
                    </mxGeometry>
                </mxCell>
                <mxCell id="YzSzsvycSWcMOv0pabxs-65" style="edgeStyle=none;shape=connector;curved=1;rounded=0;orthogonalLoop=1;jettySize=auto;html=1;exitX=0.75;exitY=0;exitDx=0;exitDy=0;strokeColor=light-dark(#636d83, #ededed);align=center;verticalAlign=middle;fontFamily=Helvetica;fontSize=13;fontColor=default;labelBackgroundColor=default;startArrow=none;endArrow=block;" parent="1" source="YzSzsvycSWcMOv0pabxs-18" target="YzSzsvycSWcMOv0pabxs-18" edge="1">
                    <mxGeometry relative="1" as="geometry"/>
                </mxCell>
                <mxCell id="YzSzsvycSWcMOv0pabxs-41" value="" style="curved=1;startArrow=none;endArrow=block;exitX=0.5;exitY=1.01;entryX=0.5;entryY=0;rounded=0;fontSize=13;strokeColor=#E6E6E6;" parent="1" source="YzSzsvycSWcMOv0pabxs-16" target="YzSzsvycSWcMOv0pabxs-17" edge="1">
                    <mxGeometry relative="1" as="geometry">
                        <Array as="points"/>
                    </mxGeometry>
                </mxCell>
            </root>
        </mxGraphModel>
    </diagram>
</mxfile>